<?xml version="1.0" encoding="utf-8"?>
<!-- Generated by IcoMoon.io -->
<!DOCTYPE svg PUBLIC "-//W3C//DTD SVG 1.1//EN" "http://www.w3.org/Graphics/SVG/1.1/DTD/svg11.dtd">
<svg xmlns="http://www.w3.org/2000/svg" xmlns:xlink="http://www.w3.org/1999/xlink">
    <symbol viewBox="0 0 32 32" id="menu-main">
        <title>menu-main</title>
            <path d="M2 6h28v6h-28zM2 14h28v6h-28zM2 22h28v6h-28z"></path>
    </symbol>

    <symbol viewBox="0 0 32 32" id="cart">
        <title>cart</title>
        <path d="M12 29c0 1.657-1.343 3-3 3s-3-1.343-3-3c0-1.657 1.343-3 3-3s3 1.343 3 3z"></path>
        <path d="M32 29c0 1.657-1.343 3-3 3s-3-1.343-3-3c0-1.657 1.343-3 3-3s3 1.343 3 3z"></path>
        <path d="M32 16v-12h-24c0-1.105-0.895-2-2-2h-6v2h4l1.502 12.877c-0.915 0.733-1.502 1.859-1.502 3.123 0 2.209 1.791 4 4 4h24v-2h-24c-1.105 0-2-0.895-2-2 0-0.007 0-0.014 0-0.020l26-3.98z"></path>
    </symbol>

    <symbol viewBox="0 0 32 32" id="fb">
        <title>fb</title>
        <path d="M30.7,0H1.3C0.6,0,0,0.6,0,1.3v29.3C0,31.4,0.6,32,1.3,32H17V20h-4v-5h4v-4
	c0-4.1,2.6-6.2,6.3-6.2C25.1,4.8,26.6,5,27,5v4.3l-2.6,0c-2,0-2.5,1-2.5,2.4V15h5l-1,5h-4l0.1,12h8.6c0.7,0,1.3-0.6,1.3-1.3V1.3
	C32,0.6,31.4,0,30.7,0z"/>
    </symbol>
    <symbol viewBox="0 0 22.24 14" id="ACart">
        <title>ACart</title>
        <path d="M0 0h24v24H0zm18.31 6l-2.76 5z" fill="none"/>
        <path d="M11 9h2V6h3V4h-3V1h-2v3H8v2h3v3zm-4 9c-1.1 0-1.99.9-1.99 2S5.9 22 7 22s2-.9 2-2-.9-2-2-2zm10 0c-1.1 0-1.99.9-1.99 2s.89 2 1.99 2 2-.9 2-2-.9-2-2-2zm-9.83-3.25l.03-.12.9-1.63h7.45c.75 0 1.41-.41 1.75-1.03l3.86-7.01L19.42 4h-.01l-1.1 2-2.76 5H8.53l-.13-.27L6.16 6l-.95-2-.94-2H1v2h2l3.6 7.59-1.35 2.45c-.16.28-.25.61-.25.96 0 1.1.9 2 2 2h12v-2H7.42c-.13 0-.25-.11-.25-.25z"/>

    </symbol>
</svg>